<?xml version="1.0" encoding="utf-8"?>
<!-- Generator: Adobe Illustrator 26.5.1, SVG Export Plug-In . SVG Version: 6.00 Build 0)  -->
<svg version="1.1" id="Layer_1" xmlns="http://www.w3.org/2000/svg" xmlns:xlink="http://www.w3.org/1999/xlink" x="0px" y="0px"
	 viewBox="0 0 368.3 421.8" style="enable-background:new 0 0 368.3 421.8;" xml:space="preserve">
<style type="text/css">
	.st0{fill:none;}
	.st1{fill:#005AAA;}
	.st2{fill:#FFFFFF;}
	.st3{fill:#DB2A27;}
	.st4{clip-path:url(#SVGID_00000088121618723186487050000009558570986829341848_);fill:#DB2A27;}
	.st5{clip-path:url(#SVGID_00000039096665585134398480000018403686175428754364_);fill:#DB2A27;}
	.st6{fill:#0F0F0F;}
	.st7{fill:#FFFFFE;}
	.st8{clip-path:url(#SVGID_00000010308759426058995920000008332435817231782827_);}
	.st9{clip-path:url(#SVGID_00000016070391357428515600000016395455498649606276_);}
	.st10{clip-path:url(#SVGID_00000010308759426058995920000008332435817231782827_);fill:#005AAA;}
	.st11{clip-path:url(#SVGID_00000010308759426058995920000008332435817231782827_);fill:#FFFFFF;}
	.st12{clip-path:url(#SVGID_00000010308759426058995920000008332435817231782827_);fill:#DB2A27;}
	.st13{clip-path:url(#SVGID_00000008111744043573067540000012695742600524046268_);fill:#DB2A27;}
	.st14{clip-path:url(#SVGID_00000048494451430333905600000017685970490597059485_);fill:#DB2A27;}
	.st15{clip-path:url(#SVGID_00000137091715950515417020000011959171077019891614_);fill:#DB2A27;}
</style>
<g>
	<path class="st2" d="M22.1,22.3l321.9-1.9c0,0,43.9,261.7-159.6,377.4C184.3,397.8-7.6,308.6,22.1,22.3"/>
	<path class="st3" d="M50.8,109.4c-4.5,0-8.1-1.5-10.8-4.4c-2.7-3-4-7-4-12c0-5,1.3-9,4-12c2.7-3,6.3-4.4,10.8-4.4
		c3.4,0,6.4,1,8.9,2.8c2.5,1.9,3.9,4.5,4.2,7.9h-5.1c-0.2-2.1-1-3.7-2.4-4.8c-1.4-1.1-3.3-1.6-5.5-1.6c-3,0-5.4,1-7.1,3.1
		c-1.7,2.1-2.6,5.1-2.6,9c0,3.9,0.9,6.9,2.6,8.9c1.7,2.1,4.1,3.1,7.1,3.1c2.3,0,4.2-0.6,5.6-1.7c1.4-1.1,2.2-2.8,2.4-5.2h5.1
		c-0.3,3.7-1.7,6.5-4,8.4C57.4,108.4,54.4,109.3,50.8,109.4L50.8,109.4z M97.7,108.8h-6.1L80.8,93.4l-4.3,4.5v11h-5V77h5v15.4
		L90.9,77h6.2L84.1,90.2L97.7,108.8z M129.2,108.8h-5.7l-8.9-13.1l-9,13.1h-5.7l11.9-16.7L101.1,77h5.7l7.8,11.5l7.8-11.5h5.7
		l-10.7,15.1L129.2,108.8z M159.3,108.8h-5V81.5h-12.8v19c0,5.9-2.2,8.8-6.5,8.8c-1,0-2.1-0.1-3.4-0.4v-4.4c0.9,0.2,1.8,0.2,2.6,0.2
		c0.9,0,1.5-0.3,1.8-0.9c0.4-0.6,0.6-1.7,0.6-3.2V77h22.7V108.8z"/>
	<path class="st3" d="M139.2,14.5c-13.5,0-25.7,0-36.6,0c-65.4,0.1-85,0.5-85.5,1.3c-0.5,0.7-1,20.2-1.2,43.2
		c-0.4,44.7,1,71.5,5.3,103.5c5.6,41.1,16.5,80.1,29.2,104.6c13,25,37.2,58.5,55.6,76.7c6.9,6.8,25,23.4,29.4,26.9
		c2.3,1.9,4.5,3.8,4.8,4.2c0.6,0.9,12.4,10,30.5,23.5c6.4,4.8,12.5,8.8,13.5,8.8c1.9,0,32.7-22.8,47.9-35.5
		c26.2-21.9,45.9-43,63.7-68.5c3.5-5,6.8-9.7,7.3-10.3c0.4-0.6,3.9-6.2,7.5-12.4c23.2-39.4,35.7-89.6,41.1-164.8
		c1.3-18.8,1-97.6-0.4-99.9c-0.7-1.1-35.3-1.3-167.1-1.3C167.7,14.5,152.8,14.5,139.2,14.5 M27.8,27.4l152.5,0h152.3l-109.2,98.8
		c0,0-3.2,2.9-5.6,5.1l74.1-1.2l17.3-0.3l-13.6,10.7l-64.8,50.8l30.1,83.8l6.8,18.9l-83.5-65.3l-83.5,65.2l6.8-18.9l23.4-65
		c-0.4,0.3-1.2,1.1-1.2,1.1l-65.5,59.2C21.5,197.9,26,76.4,27.8,27.4"/>
	<polygon class="st3" points="255.4,276.9 184.2,221.3 112.9,276.9 144.5,189.2 76.4,135.8 159.6,137.2 184.2,48.6 208.7,137.2 
		292,135.8 223.9,189.2 	"/>
</g>
</svg>
